<mxfile host="app.diagrams.net" agent="Mozilla/5.0 (Windows NT 10.0; Win64; x64) AppleWebKit/537.36 (KHTML, like Gecko) Chrome/133.0.0.0 Safari/537.36 Edg/133.0.0.0" version="26.0.14">
  <diagram name="Página-1" id="0sDQ6oo9h2tsO93rN28b">
    <mxGraphModel dx="2253" dy="1958" grid="1" gridSize="10" guides="1" tooltips="1" connect="1" arrows="1" fold="1" page="1" pageScale="1" pageWidth="827" pageHeight="1169" math="0" shadow="0">
      <root>
        <mxCell id="0" />
        <mxCell id="1" parent="0" />
        <mxCell id="c3vBG0f9ys7TwIcEn-zG-10" value="" style="whiteSpace=wrap;html=1;aspect=fixed;" vertex="1" parent="1">
          <mxGeometry x="-180" y="-120" width="1240" height="1240" as="geometry" />
        </mxCell>
        <mxCell id="c3vBG0f9ys7TwIcEn-zG-4" value="gerar currículo do semestre" style="ellipse;whiteSpace=wrap;html=1;" vertex="1" parent="1">
          <mxGeometry x="-40" y="200" width="120" height="80" as="geometry" />
        </mxCell>
        <mxCell id="c3vBG0f9ys7TwIcEn-zG-6" value="Aluno" style="shape=umlActor;verticalLabelPosition=bottom;verticalAlign=top;html=1;outlineConnect=0;" vertex="1" parent="1">
          <mxGeometry x="880" y="290" width="30" height="60" as="geometry" />
        </mxCell>
        <mxCell id="c3vBG0f9ys7TwIcEn-zG-7" value="Realizar matrícula" style="ellipse;whiteSpace=wrap;html=1;" vertex="1" parent="1">
          <mxGeometry x="827" y="140" width="120" height="80" as="geometry" />
        </mxCell>
        <mxCell id="c3vBG0f9ys7TwIcEn-zG-8" value="Acessar o sistema" style="ellipse;whiteSpace=wrap;html=1;" vertex="1" parent="1">
          <mxGeometry x="835" y="460" width="120" height="80" as="geometry" />
        </mxCell>
        <mxCell id="c3vBG0f9ys7TwIcEn-zG-9" value="Cancelar matrícula" style="ellipse;whiteSpace=wrap;html=1;" vertex="1" parent="1">
          <mxGeometry x="930" y="225" width="120" height="80" as="geometry" />
        </mxCell>
        <mxCell id="c3vBG0f9ys7TwIcEn-zG-11" value="Agente Financeiro" style="shape=umlActor;verticalLabelPosition=bottom;verticalAlign=top;html=1;outlineConnect=0;" vertex="1" parent="1">
          <mxGeometry x="399" y="-40" width="30" height="60" as="geometry" />
        </mxCell>
        <mxCell id="c3vBG0f9ys7TwIcEn-zG-12" value="Professor" style="shape=umlActor;verticalLabelPosition=bottom;verticalAlign=top;html=1;outlineConnect=0;" vertex="1" parent="1">
          <mxGeometry x="369" y="550" width="30" height="65" as="geometry" />
        </mxCell>
        <mxCell id="c3vBG0f9ys7TwIcEn-zG-13" value="Acessar o sistema" style="ellipse;whiteSpace=wrap;html=1;" vertex="1" parent="1">
          <mxGeometry x="414" y="420" width="120" height="80" as="geometry" />
        </mxCell>
        <mxCell id="c3vBG0f9ys7TwIcEn-zG-14" value="Verificar matrícula nas disciplinas" style="ellipse;whiteSpace=wrap;html=1;" vertex="1" parent="1">
          <mxGeometry x="240" y="420" width="120" height="80" as="geometry" />
        </mxCell>
        <mxCell id="c3vBG0f9ys7TwIcEn-zG-16" value="" style="endArrow=classic;html=1;rounded=0;" edge="1" parent="1" target="c3vBG0f9ys7TwIcEn-zG-14">
          <mxGeometry width="50" height="50" relative="1" as="geometry">
            <mxPoint x="379" y="550" as="sourcePoint" />
            <mxPoint x="429" y="500" as="targetPoint" />
          </mxGeometry>
        </mxCell>
        <mxCell id="c3vBG0f9ys7TwIcEn-zG-17" value="" style="endArrow=classic;html=1;rounded=0;" edge="1" parent="1" target="c3vBG0f9ys7TwIcEn-zG-13">
          <mxGeometry width="50" height="50" relative="1" as="geometry">
            <mxPoint x="389" y="560" as="sourcePoint" />
            <mxPoint x="340" y="505" as="targetPoint" />
          </mxGeometry>
        </mxCell>
        <mxCell id="c3vBG0f9ys7TwIcEn-zG-18" value="" style="endArrow=classic;html=1;rounded=0;" edge="1" parent="1" source="c3vBG0f9ys7TwIcEn-zG-6" target="c3vBG0f9ys7TwIcEn-zG-8">
          <mxGeometry width="50" height="50" relative="1" as="geometry">
            <mxPoint x="895" y="380" as="sourcePoint" />
            <mxPoint x="569.9971428571426" y="840" as="targetPoint" />
            <Array as="points">
              <mxPoint x="930" y="410" />
            </Array>
          </mxGeometry>
        </mxCell>
        <mxCell id="c3vBG0f9ys7TwIcEn-zG-19" value="" style="endArrow=classic;html=1;rounded=0;exitX=0.75;exitY=0.1;exitDx=0;exitDy=0;exitPerimeter=0;" edge="1" parent="1" source="c3vBG0f9ys7TwIcEn-zG-6" target="c3vBG0f9ys7TwIcEn-zG-9">
          <mxGeometry width="50" height="50" relative="1" as="geometry">
            <mxPoint x="890" y="290" as="sourcePoint" />
            <mxPoint x="808" y="406" as="targetPoint" />
          </mxGeometry>
        </mxCell>
        <mxCell id="c3vBG0f9ys7TwIcEn-zG-20" value="" style="endArrow=classic;html=1;rounded=0;exitX=0.25;exitY=0.1;exitDx=0;exitDy=0;exitPerimeter=0;" edge="1" parent="1" source="c3vBG0f9ys7TwIcEn-zG-6" target="c3vBG0f9ys7TwIcEn-zG-7">
          <mxGeometry width="50" height="50" relative="1" as="geometry">
            <mxPoint x="912.14" y="310" as="sourcePoint" />
            <mxPoint x="818" y="416" as="targetPoint" />
          </mxGeometry>
        </mxCell>
        <mxCell id="c3vBG0f9ys7TwIcEn-zG-34" value="Agente de matrícula" style="shape=umlActor;verticalLabelPosition=bottom;verticalAlign=top;html=1;outlineConnect=0;" vertex="1" parent="1">
          <mxGeometry x="-130" y="335" width="30" height="50" as="geometry" />
        </mxCell>
        <mxCell id="c3vBG0f9ys7TwIcEn-zG-35" value="" style="endArrow=classic;html=1;rounded=0;" edge="1" parent="1" target="c3vBG0f9ys7TwIcEn-zG-4">
          <mxGeometry width="50" height="50" relative="1" as="geometry">
            <mxPoint x="-110" y="335" as="sourcePoint" />
            <mxPoint x="-60" y="285" as="targetPoint" />
          </mxGeometry>
        </mxCell>
        <mxCell id="c3vBG0f9ys7TwIcEn-zG-36" value="" style="endArrow=classic;html=1;rounded=0;exitX=0.75;exitY=0.1;exitDx=0;exitDy=0;exitPerimeter=0;" edge="1" parent="1" source="c3vBG0f9ys7TwIcEn-zG-34">
          <mxGeometry width="50" height="50" relative="1" as="geometry">
            <mxPoint x="-100" y="345" as="sourcePoint" />
            <mxPoint x="-38.392947623322016" y="350.8042602167998" as="targetPoint" />
          </mxGeometry>
        </mxCell>
        <mxCell id="c3vBG0f9ys7TwIcEn-zG-37" value="Editar informações de professores,alunos e disciplinas" style="ellipse;whiteSpace=wrap;html=1;" vertex="1" parent="1">
          <mxGeometry x="-40" y="305" width="120" height="80" as="geometry" />
        </mxCell>
        <mxCell id="c3vBG0f9ys7TwIcEn-zG-38" value="Acessar o sistema" style="ellipse;whiteSpace=wrap;html=1;" vertex="1" parent="1">
          <mxGeometry x="-40" y="100" width="120" height="80" as="geometry" />
        </mxCell>
        <mxCell id="c3vBG0f9ys7TwIcEn-zG-39" value="" style="endArrow=classic;html=1;rounded=0;exitX=0.25;exitY=0.1;exitDx=0;exitDy=0;exitPerimeter=0;entryX=0;entryY=0.5;entryDx=0;entryDy=0;" edge="1" parent="1" source="c3vBG0f9ys7TwIcEn-zG-34" target="c3vBG0f9ys7TwIcEn-zG-38">
          <mxGeometry width="50" height="50" relative="1" as="geometry">
            <mxPoint x="470" y="310" as="sourcePoint" />
            <mxPoint x="520" y="260" as="targetPoint" />
          </mxGeometry>
        </mxCell>
        <mxCell id="c3vBG0f9ys7TwIcEn-zG-40" value="" style="endArrow=none;dashed=1;html=1;rounded=0;" edge="1" parent="1" target="c3vBG0f9ys7TwIcEn-zG-41">
          <mxGeometry width="50" height="50" relative="1" as="geometry">
            <mxPoint x="80" y="140" as="sourcePoint" />
            <mxPoint x="130" y="90" as="targetPoint" />
          </mxGeometry>
        </mxCell>
        <mxCell id="c3vBG0f9ys7TwIcEn-zG-41" value="Autenticar no sistema" style="ellipse;whiteSpace=wrap;html=1;" vertex="1" parent="1">
          <mxGeometry x="160" y="100" width="120" height="80" as="geometry" />
        </mxCell>
        <mxCell id="c3vBG0f9ys7TwIcEn-zG-42" value="Autenticar no sistema" style="ellipse;whiteSpace=wrap;html=1;" vertex="1" parent="1">
          <mxGeometry x="414" y="305" width="120" height="80" as="geometry" />
        </mxCell>
        <mxCell id="c3vBG0f9ys7TwIcEn-zG-43" value="" style="endArrow=none;dashed=1;html=1;dashPattern=1 3;strokeWidth=2;rounded=0;entryX=0.5;entryY=0;entryDx=0;entryDy=0;exitX=0.5;exitY=1;exitDx=0;exitDy=0;" edge="1" parent="1" source="c3vBG0f9ys7TwIcEn-zG-42" target="c3vBG0f9ys7TwIcEn-zG-13">
          <mxGeometry width="50" height="50" relative="1" as="geometry">
            <mxPoint x="470" y="320" as="sourcePoint" />
            <mxPoint x="520" y="270" as="targetPoint" />
          </mxGeometry>
        </mxCell>
        <mxCell id="c3vBG0f9ys7TwIcEn-zG-44" value="Autenticar no sistema" style="ellipse;whiteSpace=wrap;html=1;" vertex="1" parent="1">
          <mxGeometry x="835" y="600" width="120" height="80" as="geometry" />
        </mxCell>
        <mxCell id="c3vBG0f9ys7TwIcEn-zG-45" value="" style="endArrow=none;dashed=1;html=1;dashPattern=1 3;strokeWidth=2;rounded=0;exitX=0.5;exitY=0;exitDx=0;exitDy=0;" edge="1" parent="1" source="c3vBG0f9ys7TwIcEn-zG-44" target="c3vBG0f9ys7TwIcEn-zG-8">
          <mxGeometry width="50" height="50" relative="1" as="geometry">
            <mxPoint x="730" y="510" as="sourcePoint" />
            <mxPoint x="780" y="460" as="targetPoint" />
          </mxGeometry>
        </mxCell>
        <mxCell id="c3vBG0f9ys7TwIcEn-zG-46" value="&amp;lt;&amp;lt;include&amp;gt;&amp;gt;" style="text;html=1;align=center;verticalAlign=middle;whiteSpace=wrap;rounded=0;" vertex="1" parent="1">
          <mxGeometry x="90" y="110" width="60" height="30" as="geometry" />
        </mxCell>
        <mxCell id="c3vBG0f9ys7TwIcEn-zG-47" value="&amp;lt;&amp;lt;include&amp;gt;&amp;gt;" style="text;html=1;align=center;verticalAlign=middle;whiteSpace=wrap;rounded=0;" vertex="1" parent="1">
          <mxGeometry x="480" y="385" width="60" height="30" as="geometry" />
        </mxCell>
        <mxCell id="c3vBG0f9ys7TwIcEn-zG-48" value="&amp;lt;&amp;lt;include&amp;gt;&amp;gt;" style="text;html=1;align=center;verticalAlign=middle;whiteSpace=wrap;rounded=0;" vertex="1" parent="1">
          <mxGeometry x="900" y="555" width="60" height="30" as="geometry" />
        </mxCell>
        <mxCell id="c3vBG0f9ys7TwIcEn-zG-49" value="matricular na 1° opção" style="ellipse;whiteSpace=wrap;html=1;" vertex="1" parent="1">
          <mxGeometry x="827" y="-10" width="120" height="80" as="geometry" />
        </mxCell>
        <mxCell id="c3vBG0f9ys7TwIcEn-zG-50" value="" style="endArrow=none;dashed=1;html=1;dashPattern=1 3;strokeWidth=2;rounded=0;exitX=0.558;exitY=0.05;exitDx=0;exitDy=0;exitPerimeter=0;" edge="1" parent="1" source="c3vBG0f9ys7TwIcEn-zG-7">
          <mxGeometry width="50" height="50" relative="1" as="geometry">
            <mxPoint x="840" y="120" as="sourcePoint" />
            <mxPoint x="890" y="70" as="targetPoint" />
          </mxGeometry>
        </mxCell>
        <mxCell id="c3vBG0f9ys7TwIcEn-zG-51" value="&amp;lt;&amp;lt;include&amp;gt;&amp;gt;" style="text;html=1;align=center;verticalAlign=middle;whiteSpace=wrap;rounded=0;" vertex="1" parent="1">
          <mxGeometry x="900" y="90" width="60" height="30" as="geometry" />
        </mxCell>
        <mxCell id="c3vBG0f9ys7TwIcEn-zG-52" value="matricular nas alternativas" style="ellipse;whiteSpace=wrap;html=1;" vertex="1" parent="1">
          <mxGeometry x="690" width="120" height="80" as="geometry" />
        </mxCell>
        <mxCell id="c3vBG0f9ys7TwIcEn-zG-53" value="" style="endArrow=none;dashed=1;html=1;dashPattern=1 3;strokeWidth=2;rounded=0;" edge="1" parent="1" source="c3vBG0f9ys7TwIcEn-zG-7">
          <mxGeometry width="50" height="50" relative="1" as="geometry">
            <mxPoint x="710" y="130" as="sourcePoint" />
            <mxPoint x="760" y="80" as="targetPoint" />
          </mxGeometry>
        </mxCell>
        <mxCell id="c3vBG0f9ys7TwIcEn-zG-54" value="&amp;lt;&amp;lt;extend&amp;gt;&amp;gt;" style="text;html=1;align=center;verticalAlign=middle;whiteSpace=wrap;rounded=0;" vertex="1" parent="1">
          <mxGeometry x="740" y="110" width="60" height="30" as="geometry" />
        </mxCell>
        <mxCell id="c3vBG0f9ys7TwIcEn-zG-55" value="Notificar inscrição no semestre" style="ellipse;whiteSpace=wrap;html=1;" vertex="1" parent="1">
          <mxGeometry x="-170" y="-10" width="120" height="80" as="geometry" />
        </mxCell>
        <mxCell id="c3vBG0f9ys7TwIcEn-zG-57" value="" style="endArrow=classic;html=1;rounded=0;exitX=0;exitY=0.3333333333333333;exitDx=0;exitDy=0;exitPerimeter=0;" edge="1" parent="1" source="c3vBG0f9ys7TwIcEn-zG-34" target="c3vBG0f9ys7TwIcEn-zG-55">
          <mxGeometry width="50" height="50" relative="1" as="geometry">
            <mxPoint x="-90" y="470" as="sourcePoint" />
            <mxPoint x="-40" y="420" as="targetPoint" />
          </mxGeometry>
        </mxCell>
        <mxCell id="c3vBG0f9ys7TwIcEn-zG-58" value="" style="endArrow=classic;html=1;rounded=0;entryX=0.5;entryY=0.5;entryDx=0;entryDy=0;entryPerimeter=0;" edge="1" parent="1" source="c3vBG0f9ys7TwIcEn-zG-55" target="c3vBG0f9ys7TwIcEn-zG-11">
          <mxGeometry width="50" height="50" relative="1" as="geometry">
            <mxPoint x="30" y="50" as="sourcePoint" />
            <mxPoint x="80" as="targetPoint" />
          </mxGeometry>
        </mxCell>
        <mxCell id="c3vBG0f9ys7TwIcEn-zG-59" value="Gerar cobrança" style="ellipse;whiteSpace=wrap;html=1;" vertex="1" parent="1">
          <mxGeometry x="429" y="90" width="120" height="80" as="geometry" />
        </mxCell>
        <mxCell id="c3vBG0f9ys7TwIcEn-zG-60" value="" style="endArrow=classic;html=1;rounded=0;exitX=1;exitY=1;exitDx=0;exitDy=0;exitPerimeter=0;entryX=0.408;entryY=0.063;entryDx=0;entryDy=0;entryPerimeter=0;" edge="1" parent="1" source="c3vBG0f9ys7TwIcEn-zG-11" target="c3vBG0f9ys7TwIcEn-zG-59">
          <mxGeometry width="50" height="50" relative="1" as="geometry">
            <mxPoint x="470" y="320" as="sourcePoint" />
            <mxPoint x="520" y="270" as="targetPoint" />
          </mxGeometry>
        </mxCell>
        <mxCell id="c3vBG0f9ys7TwIcEn-zG-61" value="" style="endArrow=classic;html=1;rounded=0;" edge="1" parent="1">
          <mxGeometry width="50" height="50" relative="1" as="geometry">
            <mxPoint x="539.9952564314269" y="129.91907076859255" as="sourcePoint" />
            <mxPoint x="881.8" y="290.00029556650225" as="targetPoint" />
          </mxGeometry>
        </mxCell>
        <mxCell id="c3vBG0f9ys7TwIcEn-zG-62" value="Inscrever no semestre" style="ellipse;whiteSpace=wrap;html=1;" vertex="1" parent="1">
          <mxGeometry x="710" y="315" width="90" height="60" as="geometry" />
        </mxCell>
        <mxCell id="c3vBG0f9ys7TwIcEn-zG-63" value="" style="endArrow=classic;html=1;rounded=0;entryX=1;entryY=0.5;entryDx=0;entryDy=0;exitX=0;exitY=0.3333333333333333;exitDx=0;exitDy=0;exitPerimeter=0;" edge="1" parent="1" source="c3vBG0f9ys7TwIcEn-zG-6" target="c3vBG0f9ys7TwIcEn-zG-62">
          <mxGeometry width="50" height="50" relative="1" as="geometry">
            <mxPoint x="880" y="300" as="sourcePoint" />
            <mxPoint x="920" y="380" as="targetPoint" />
          </mxGeometry>
        </mxCell>
        <mxCell id="c3vBG0f9ys7TwIcEn-zG-64" value="" style="endArrow=classic;html=1;rounded=0;entryX=0.592;entryY=-0.025;entryDx=0;entryDy=0;entryPerimeter=0;" edge="1" parent="1" source="c3vBG0f9ys7TwIcEn-zG-62">
          <mxGeometry width="50" height="50" relative="1" as="geometry">
            <mxPoint x="600.9299999999998" y="371.02" as="sourcePoint" />
            <mxPoint x="-90.00000000000004" y="328" as="targetPoint" />
            <Array as="points">
              <mxPoint x="490" y="260" />
              <mxPoint x="278.96" y="305" />
              <mxPoint x="100" y="270" />
            </Array>
          </mxGeometry>
        </mxCell>
      </root>
    </mxGraphModel>
  </diagram>
</mxfile>
